<svg xmlns="http://www.w3.org/2000/svg" width="3200" height="1800" viewBox="0 0 1600 900" font-family="Pretendard, 'Noto Sans KR', 'Malgun Gothic', sans-serif">
  <defs>
    <marker id="arr2" markerWidth="9" markerHeight="8" refX="7" refY="4" orient="auto" markerUnits="userSpaceOnUse">
      <path d="M0,0 L8,4 L0,8 Z" fill="#64748B"/>
    </marker>
    <marker id="arrT" markerWidth="9" markerHeight="8" refX="7" refY="4" orient="auto" markerUnits="userSpaceOnUse">
      <path d="M0,0 L8,4 L0,8 Z" fill="#0D9488"/>
    </marker>
  </defs>

  <rect x="0" y="0" width="1600" height="900" fill="#FFFFFF"/>

  <!-- ===== 헤더 ===== -->
  <rect x="40" y="24" width="88" height="38" rx="8" fill="#0F172A"/>
  <text x="84" y="49" text-anchor="middle" font-size="17" font-weight="700" fill="#FFFFFF">DP-C8</text>
  <text x="144" y="45" font-size="26" font-weight="700" fill="#0F172A">에이전트 루프 구조 <tspan font-size="15" font-weight="400" fill="#64748B">— 배경 (2/2) · 다단계 웹 태스크의 실패 요인</tspan></text>
  <text x="144" y="70" font-size="14.5" fill="#475569">다단계 웹 태스크의 실패 요인 3개 — 동일 시나리오에서의 발생 기제</text>
  <text x="1560" y="50" text-anchor="end" font-size="11.5" fill="#64748B">설계 변수 ① 컨텍스트의 수명 · ② 계획의 소유권 (1/2 참조)</text>
  <line x1="40" y1="86" x2="1560" y2="86" stroke="#E2E8F0" stroke-width="1.5"/>

  <!-- ===== 관통 시나리오 스트립 ===== -->
  <rect x="40" y="100" width="1520" height="106" rx="10" fill="#F8FAFC" stroke="#CBD5E1" stroke-width="1.5"/>
  <text x="60" y="122" font-size="11" font-weight="700" fill="#64748B">관통 시나리오</text>
  <text x="60" y="150" font-size="15" font-weight="700" fill="#0F172A">"쿠팡에서 이 드라마 DVD를</text>
  <text x="60" y="172" font-size="15" font-weight="700" fill="#0F172A">최저가로 주문해줘"</text>
  <text x="60" y="192" font-size="10" fill="#64748B">3개 실패 요인의 공통 전제</text>

  <!-- 브라우저 목업 -->
  <rect x="390" y="112" width="1154" height="82" rx="6" fill="#FFFFFF" stroke="#94A3B8" stroke-width="1.5"/>
  <rect x="390" y="112" width="1154" height="20" rx="6" fill="#F1F5F9"/>
  <rect x="390" y="126" width="1154" height="6" fill="#F1F5F9"/>
  <line x1="390" y1="132" x2="1544" y2="132" stroke="#CBD5E1"/>
  <circle cx="402" cy="122" r="3" fill="#CBD5E1"/>
  <circle cx="412" cy="122" r="3" fill="#CBD5E1"/>
  <rect x="428" y="116" width="160" height="12" rx="6" fill="#FFFFFF" stroke="#CBD5E1"/>
  <text x="434" y="125.5" font-size="8" fill="#64748B">검색: 드라마 DVD</text>
  <text x="1536" y="125.5" text-anchor="end" font-size="8" fill="#94A3B8">검색 결과 12개</text>

  <rect x="400" y="140" width="368" height="46" rx="5" fill="#FFFFFF" stroke="#E2E8F0"/>
  <rect x="408" y="148" width="30" height="30" rx="4" fill="#E2E8F0"/>
  <rect x="446" y="149" width="26" height="12" rx="3" fill="#FEF3C7" stroke="#F59E0B"/>
  <text x="459" y="158" text-anchor="middle" font-size="7.5" font-weight="700" fill="#92400E">광고</text>
  <text x="478" y="158" font-size="10" fill="#334155">드라마 DVD 세트</text>
  <text x="446" y="174" font-size="8.5" fill="#94A3B8">1번째 · 최상단 노출</text>
  <text x="760" y="169" text-anchor="end" font-size="15" font-weight="700" fill="#0F172A">₩19,900</text>

  <rect x="778" y="140" width="368" height="46" rx="5" fill="#FFFFFF" stroke="#E2E8F0"/>
  <rect x="786" y="148" width="30" height="30" rx="4" fill="#E2E8F0"/>
  <text x="824" y="158" font-size="10" fill="#334155">드라마 DVD 세트</text>
  <text x="824" y="174" font-size="8.5" fill="#94A3B8">2번째</text>
  <text x="1138" y="169" text-anchor="end" font-size="15" font-weight="700" fill="#0F172A">₩15,500</text>

  <rect x="1156" y="140" width="380" height="46" rx="5" fill="#F0FDFA" stroke="#0D9488" stroke-width="2"/>
  <rect x="1164" y="148" width="30" height="30" rx="4" fill="#CCFBF1"/>
  <text x="1202" y="158" font-size="10" fill="#334155">드라마 DVD 세트</text>
  <text x="1202" y="174" font-size="8.5" font-weight="700" fill="#0D9488">3번째 · 실제 최저가</text>
  <text x="1528" y="169" text-anchor="end" font-size="15" font-weight="700" fill="#0D9488">₩12,900</text>

  <!-- ============ 카드 F1 ============ -->
  <rect x="56" y="220" width="480" height="486" rx="10" fill="#FFFFFF" stroke="#CBD5E1" stroke-width="1.5"/>
  <rect x="56" y="220" width="480" height="28" rx="10" fill="#475569"/>
  <rect x="56" y="234" width="480" height="14" fill="#475569"/>
  <text x="72" y="239" font-size="11" font-weight="700" fill="#FFFFFF">설계 변수 ① — 컨텍스트의 수명</text>
  <text x="72" y="272" font-size="15" font-weight="700" fill="#0F172A">목표 통제력 저하</text>
  <text x="72" y="290" font-size="10.5" fill="#64748B">관찰 적재에 따른 목표 신호 비중 축소</text>

  <!-- F1 그림 : 컨텍스트 구성비 변화 -->
  <rect x="72" y="302" width="448" height="196" rx="8" fill="#F8FAFC" stroke="#E2E8F0"/>
  <text x="84" y="320" font-size="9.5" font-weight="700" fill="#64748B">컨텍스트 구성비 (전체 = 매 스텝 LLM 입력)</text>

  <text x="84" y="345" font-size="9" fill="#64748B">스텝 1</text>
  <rect x="128" y="334" width="62" height="16" fill="#FEF3C7" stroke="#F59E0B"/>
  <text x="159" y="346" text-anchor="middle" font-size="8" font-weight="700" fill="#92400E">목표</text>
  <rect x="190" y="334" width="318" height="16" fill="#F1F5F9" stroke="#CBD5E1"/>
  <text x="349" y="346" text-anchor="middle" font-size="8" fill="#64748B">관찰 1 (검색 결과 12개 DOM)</text>

  <text x="84" y="375" font-size="9" fill="#64748B">스텝 3</text>
  <rect x="128" y="364" width="24" height="16" fill="#FEF3C7" stroke="#F59E0B"/>
  <rect x="152" y="364" width="118" height="16" fill="#F1F5F9" stroke="#CBD5E1"/>
  <text x="211" y="376" text-anchor="middle" font-size="8" fill="#64748B">관찰 1</text>
  <rect x="270" y="364" width="118" height="16" fill="#F1F5F9" stroke="#CBD5E1"/>
  <text x="329" y="376" text-anchor="middle" font-size="8" fill="#64748B">관찰 2</text>
  <rect x="388" y="364" width="120" height="16" fill="#F1F5F9" stroke="#CBD5E1"/>
  <text x="448" y="376" text-anchor="middle" font-size="8" fill="#64748B">관찰 3</text>

  <text x="84" y="405" font-size="9" fill="#64748B">스텝 5</text>
  <rect x="128" y="394" width="12" height="16" fill="#FEF3C7" stroke="#F59E0B"/>
  <rect x="140" y="394" width="73" height="16" fill="#F1F5F9" stroke="#CBD5E1"/>
  <rect x="213" y="394" width="73" height="16" fill="#F1F5F9" stroke="#CBD5E1"/>
  <rect x="286" y="394" width="73" height="16" fill="#F1F5F9" stroke="#CBD5E1"/>
  <rect x="359" y="394" width="74" height="16" fill="#F1F5F9" stroke="#CBD5E1"/>
  <rect x="433" y="394" width="75" height="16" fill="#F1F5F9" stroke="#CBD5E1"/>
  <text x="324" y="406" text-anchor="middle" font-size="8" fill="#64748B">관찰 1 ~ 5 누적</text>
  <path d="M 134 414 V 424" fill="none" stroke="#B45309" stroke-width="1.2"/>
  <text x="128" y="434" font-size="8.5" font-weight="700" fill="#B45309">목표 비중 극소 — 조건 "최저가" 희석</text>

  <text x="84" y="464" font-size="9" fill="#64748B">스텝 9</text>
  <rect x="128" y="453" width="10" height="16" fill="#FEF3C7" stroke="#F59E0B"/>
  <rect x="138" y="453" width="110" height="16" fill="#E2E8F0" stroke="#94A3B8" stroke-dasharray="3 2"/>
  <text x="193" y="465" text-anchor="middle" font-size="8" fill="#475569">요약 (관찰 1~6)</text>
  <rect x="248" y="453" width="130" height="16" fill="#F1F5F9" stroke="#CBD5E1"/>
  <text x="313" y="465" text-anchor="middle" font-size="8" fill="#64748B">관찰 7</text>
  <rect x="378" y="453" width="130" height="16" fill="#F1F5F9" stroke="#CBD5E1"/>
  <text x="443" y="465" text-anchor="middle" font-size="8" fill="#64748B">관찰 8</text>
  <path d="M 193 471 V 481" fill="none" stroke="#B45309" stroke-width="1.2"/>
  <text x="150" y="491" font-size="8.5" font-weight="700" fill="#B45309">요약 치환 — 근거 ₩12,900 유실 위험</text>

  <line x1="72" y1="512" x2="520" y2="512" stroke="#E2E8F0"/>
  <text x="72" y="530" font-size="10.5" font-weight="700" fill="#334155">발생 기제</text>
  <text x="72" y="548" font-size="10" fill="#475569">· 스텝당 수천~수만 토큰 관찰 적재 → 목표 조건의</text>
  <text x="80" y="564" font-size="10" fill="#475569">상대 비중 지속 축소 (목표 토큰 수는 불변)</text>
  <text x="72" y="588" font-size="10.5" font-weight="700" fill="#334155">발현</text>
  <text x="72" y="606" font-size="10" fill="#475569">· 초기 — 조건 희석: 가격 비교 단계 생략</text>
  <text x="80" y="622" font-size="10" fill="#64748B">→ 최상단 광고 ₩19,900 선택 · 형식상 완료</text>
  <text x="72" y="640" font-size="10" fill="#475569">· 후기 — 지시 준수율 저하: 10만+ 토큰 구간</text>
  <text x="80" y="656" font-size="10" fill="#64748B">→ 동일 페이지 재방문 · 스텝 소진</text>

  <!-- ============ 카드 F2 ============ -->
  <rect x="560" y="220" width="480" height="486" rx="10" fill="#FFFFFF" stroke="#CBD5E1" stroke-width="1.5"/>
  <rect x="560" y="220" width="480" height="28" rx="10" fill="#475569"/>
  <rect x="560" y="234" width="480" height="14" fill="#475569"/>
  <text x="576" y="239" font-size="11" font-weight="700" fill="#FFFFFF">설계 변수 ② — 계획의 소유권</text>
  <text x="576" y="272" font-size="15" font-weight="700" fill="#0F172A">완료 오판 · 계획 자기수정</text>
  <text x="576" y="290" font-size="10.5" fill="#64748B">작성 · 수행 · 판정 주체의 동일성</text>

  <!-- F2 그림 : 자기 판정 구조 -->
  <rect x="576" y="302" width="448" height="196" rx="8" fill="#F8FAFC" stroke="#E2E8F0"/>
  <text x="588" y="320" font-size="9.5" font-weight="700" fill="#64748B">자기 판정 구조 — 독립 검증자 부재</text>

  <rect x="600" y="330" width="180" height="60" rx="8" fill="#FFFFFF" stroke="#0F172A" stroke-width="2"/>
  <text x="690" y="350" text-anchor="middle" font-size="12" font-weight="700" fill="#0F172A">단일 LLM</text>
  <rect x="610" y="358" width="50" height="18" rx="3" fill="#F1F5F9" stroke="#CBD5E1"/>
  <text x="635" y="371" text-anchor="middle" font-size="8" fill="#475569">작성</text>
  <rect x="665" y="358" width="50" height="18" rx="3" fill="#F1F5F9" stroke="#CBD5E1"/>
  <text x="690" y="371" text-anchor="middle" font-size="8" fill="#475569">수행</text>
  <rect x="720" y="358" width="50" height="18" rx="3" fill="#F1F5F9" stroke="#CBD5E1"/>
  <text x="745" y="371" text-anchor="middle" font-size="8" fill="#475569">판정</text>

  <path d="M 780 348 H 812 V 420 H 800" fill="none" stroke="#B45309" stroke-width="1.5" marker-end="url(#arr2)"/>
  <text x="820" y="378" font-size="8.5" font-weight="700" fill="#B45309">판정 근거 =</text>
  <text x="820" y="390" font-size="8.5" font-weight="700" fill="#B45309">자신의 직전 출력</text>
  <text x="820" y="402" font-size="8" fill="#A16207">(자기일관성 편향)</text>

  <path d="M 690 390 V 406" fill="none" stroke="#64748B" stroke-width="1.5" marker-end="url(#arr2)"/>
  <text x="700" y="402" font-size="8" fill="#64748B">생성 · 수정</text>

  <rect x="600" y="410" width="200" height="76" rx="6" fill="#FFFFFF" stroke="#94A3B8" stroke-width="1.5"/>
  <text x="610" y="426" font-size="9" font-weight="700" fill="#475569">계획 (컨텍스트 내 텍스트)</text>
  <text x="612" y="443" font-size="9" fill="#0D9488">☑</text>
  <text x="626" y="443" font-size="9" fill="#475569">검색</text>
  <text x="612" y="460" font-size="9" fill="#0D9488">☑</text>
  <text x="626" y="460" font-size="9" font-weight="700" fill="#0F172A">가격 비교</text>
  <rect x="694" y="451" width="100" height="12" rx="3" fill="#FEF3C7" stroke="#F59E0B"/>
  <text x="744" y="460" text-anchor="middle" font-size="7.5" font-weight="700" fill="#92400E">12개 중 3개만 확인</text>
  <text x="612" y="477" font-size="9" fill="#94A3B8">☐</text>
  <text x="626" y="477" font-size="9" fill="#94A3B8">담기 · 결제</text>

  <line x1="576" y1="512" x2="1024" y2="512" stroke="#E2E8F0"/>
  <text x="576" y="530" font-size="10.5" font-weight="700" fill="#334155">발생 기제</text>
  <text x="576" y="548" font-size="10" fill="#475569">· 계획 작성 · 수행 · 완료 판정이 단일 LLM에 집중</text>
  <text x="584" y="564" font-size="10" fill="#64748B">→ 독립 검증자 부재</text>
  <text x="576" y="580" font-size="10" fill="#475569">· 판정 근거 = 자신의 직전 출력</text>
  <text x="584" y="596" font-size="10" fill="#64748B">→ 자기일관성 편향: 자기 선언의 무비판 수용</text>
  <text x="576" y="612" font-size="10" fill="#475569">· 완료 기준이 자연어 서술 → 검증 술어 부재</text>
  <text x="584" y="628" font-size="10" fill="#64748B">→ "가격 비교"의 대상 범위 미규정 · 해석 자유</text>
  <text x="576" y="644" font-size="10" fill="#475569">· 계획도 동일 컨텍스트 내 텍스트 → 수정 자유</text>
  <text x="584" y="660" font-size="10" fill="#64748B">→ "품절 다수" 사유로 최저가 조건 하향</text>

  <!-- ============ 카드 F3 ============ -->
  <rect x="1064" y="220" width="480" height="486" rx="10" fill="#FFFFFF" stroke="#CBD5E1" stroke-width="1.5"/>
  <rect x="1064" y="220" width="480" height="28" rx="10" fill="#475569"/>
  <rect x="1064" y="234" width="480" height="14" fill="#475569"/>
  <text x="1080" y="239" font-size="11" font-weight="700" fill="#FFFFFF">설계 변수 ② — 계획의 소유권</text>
  <text x="1080" y="272" font-size="15" font-weight="700" fill="#0F172A">계획-현실 괴리</text>
  <text x="1080" y="290" font-size="10.5" fill="#64748B">사전 수립 계획의 가정 붕괴</text>

  <!-- F3 그림 : 계획 vs 실제 구조 -->
  <rect x="1080" y="302" width="448" height="196" rx="8" fill="#F8FAFC" stroke="#E2E8F0"/>
  <text x="1092" y="320" font-size="9.5" font-weight="700" fill="#64748B">사전 계획 (수립 시점 = 관찰 이전)</text>

  <rect x="1092" y="330" width="80" height="30" rx="5" fill="#FFFFFF" stroke="#94A3B8"/>
  <text x="1132" y="349" text-anchor="middle" font-size="9" fill="#334155">검색</text>
  <path d="M 1172 345 H 1186" fill="none" stroke="#64748B" stroke-width="1.5" marker-end="url(#arr2)"/>
  <rect x="1190" y="330" width="140" height="30" rx="5" fill="#FFFFFF" stroke="#DC2626" stroke-width="2"/>
  <text x="1260" y="349" text-anchor="middle" font-size="9" fill="#334155">검색 결과에서 가격 수집</text>
  <path d="M 1330 345 H 1344" fill="none" stroke="#CBD5E1" stroke-width="1.5"/>
  <rect x="1348" y="330" width="72" height="30" rx="5" fill="#F8FAFC" stroke="#E2E8F0"/>
  <text x="1384" y="349" text-anchor="middle" font-size="9" fill="#94A3B8">비교</text>
  <path d="M 1420 345 H 1434" fill="none" stroke="#CBD5E1" stroke-width="1.5"/>
  <rect x="1438" y="330" width="72" height="30" rx="5" fill="#F8FAFC" stroke="#E2E8F0"/>
  <text x="1474" y="349" text-anchor="middle" font-size="9" fill="#94A3B8">담기</text>

  <text x="1260" y="374" text-anchor="middle" font-size="9" font-weight="700" fill="#DC2626">✗ 단계 무효</text>
  <text x="1429" y="374" text-anchor="middle" font-size="8.5" fill="#94A3B8">연쇄 무효</text>

  <line x1="1092" y1="386" x2="1516" y2="386" stroke="#E2E8F0"/>
  <text x="1092" y="404" font-size="9.5" font-weight="700" fill="#64748B">실제 페이지 구조</text>

  <rect x="1092" y="414" width="170" height="66" rx="5" fill="#FFFFFF" stroke="#94A3B8" stroke-width="1.5"/>
  <text x="1102" y="430" font-size="9" font-weight="700" fill="#334155">검색 결과 페이지</text>
  <rect x="1102" y="437" width="150" height="15" rx="3" fill="#F1F5F9"/>
  <text x="1108" y="448" font-size="7.5" fill="#64748B">드라마 DVD 세트</text>
  <rect x="1102" y="455" width="150" height="15" rx="3" fill="#F1F5F9"/>
  <text x="1108" y="466" font-size="7.5" fill="#64748B">드라마 DVD 세트</text>
  <text x="1177" y="448" font-size="7.5" font-weight="700" fill="#DC2626">가격 없음</text>
  <text x="1177" y="466" font-size="7.5" font-weight="700" fill="#DC2626">가격 없음</text>

  <path d="M 1262 447 H 1296" fill="none" stroke="#64748B" stroke-width="1.5" marker-end="url(#arr2)"/>
  <text x="1279" y="441" text-anchor="middle" font-size="7.5" fill="#64748B">진입</text>

  <rect x="1300" y="414" width="170" height="66" rx="5" fill="#FFFFFF" stroke="#94A3B8" stroke-width="1.5"/>
  <text x="1310" y="430" font-size="9" font-weight="700" fill="#334155">상품 상세 페이지</text>
  <rect x="1310" y="437" width="150" height="33" rx="3" fill="#F0FDFA" stroke="#0D9488"/>
  <text x="1320" y="458" font-size="11" font-weight="700" fill="#0D9488">₩12,900</text>
  <text x="1395" y="458" font-size="7.5" fill="#0D9488">가격은 여기에만</text>

  <line x1="1080" y1="512" x2="1528" y2="512" stroke="#E2E8F0"/>
  <text x="1080" y="530" font-size="10.5" font-weight="700" fill="#334155">발생 기제</text>
  <text x="1080" y="548" font-size="10" fill="#475569">· 계획 수립 시점 = 관찰 이전</text>
  <text x="1088" y="564" font-size="10" fill="#64748B">→ 사이트 구조를 가정에 기반해 단계화</text>
  <text x="1080" y="580" font-size="10" fill="#475569">· 웹 환경: 팝업 · 동적 로딩 · 개인화 · A/B 노출</text>
  <text x="1088" y="596" font-size="10" fill="#64748B">→ 사전 예측 가능성 제한</text>
  <text x="1080" y="620" font-size="10.5" font-weight="700" fill="#334155">발현</text>
  <text x="1080" y="638" font-size="10" fill="#475569">· 가정 붕괴 단계 이후 잔여 계획 연쇄 무효</text>
  <text x="1080" y="656" font-size="10" fill="#475569">· 재계획 경로 부재 시 공회전 · 스텝 소진</text>

  <!-- ===== 결론 스트립 ===== -->
  <rect x="40" y="720" width="1520" height="46" rx="10" fill="#FFFBEB" stroke="#F59E0B" stroke-width="1.5"/>
  <text x="800" y="740" text-anchor="middle" font-size="14" font-weight="700" fill="#92400E">세 실패 요인을 모두 차단하는 극단은 없음 — 확률적 완화 vs 구조적 보장의 트레이드오프 → 후보안 비교 (다음 장)</text>
  <text x="800" y="758" text-anchor="middle" font-size="10.5" fill="#A16207">선행 실측: 장기 컨텍스트 계획 준수율 · 태스크 분포 · LLM 왕복 시간 (§7)</text>

  <text x="40" y="878" font-size="9.5" fill="#94A3B8">Tizen TV AI Web Agent — ADS · DP-C8 배경장 (2/2)</text>
  <text x="1560" y="878" text-anchor="end" font-size="9.5" fill="#94A3B8">2026-07</text>
</svg>
