<svg xmlns="http://www.w3.org/2000/svg" width="100" height="84" viewBox="0 0 100 84">
  <rect x="24" y="4" width="64" height="44" rx="5" fill="#ffffff" stroke="#aab8cc" stroke-width="2"/>
  <rect x="10" y="18" width="64" height="46" rx="5" fill="#ffffff" stroke="#1f3864" stroke-width="2.4"/>
  <line x1="10" y1="30" x2="74" y2="30" stroke="#1f3864" stroke-width="2.4"/>
  <circle cx="18" cy="24" r="2" fill="#8497b0"/><circle cx="25" cy="24" r="2" fill="#8497b0"/><circle cx="32" cy="24" r="2" fill="#8497b0"/>
  <g stroke="#1f3864" stroke-width="2" fill="none">
    <circle cx="44" cy="46" r="8"/>
    <line x1="44" y1="34" x2="44" y2="38"/><line x1="44" y1="54" x2="44" y2="58"/>
    <line x1="32" y1="46" x2="36" y2="46"/><line x1="52" y1="46" x2="56" y2="46"/>
    <line x1="35.5" y1="37.5" x2="38" y2="40"/><line x1="50" y1="52" x2="52.5" y2="54.5"/>
    <line x1="52.5" y1="37.5" x2="50" y2="40"/><line x1="38" y1="52" x2="35.5" y2="54.5"/>
  </g>
  <circle cx="44" cy="46" r="2.5" fill="#1f3864"/>
</svg>
